<svg width="24" height="22" viewBox="0 0 24 22" fill="none" xmlns="http://www.w3.org/2000/svg">
<path d="M0.4 17.8H6.49065C6.43701 18.1952 6.4 18.5943 6.4 19V21C6.4 21.2209 6.57891 21.4 6.8 21.4H23.6C23.8211 21.4 24 21.2209 24 21V19C24 15.3823 21.8285 12.1909 18.5286 10.8506C19.4339 9.97705 20 8.75432 20 7.39998C20 4.7533 17.8469 2.59998 15.2 2.59998C12.5531 2.59998 10.4 4.7533 10.4 7.39998C10.4 8.75615 10.9677 9.98027 11.8751 10.8541C10.7963 11.2959 9.80371 11.9504 8.97734 12.7771C7.79792 13.9563 7.00344 15.4142 6.6363 17H0.8V15C0.8 13.1863 1.50703 11.4783 2.78984 10.1916C3.46597 9.51912 4.28562 8.99748 5.1645 8.6602C5.88682 9.14304 6.7231 9.39997 7.6 9.39997C8.26562 9.39997 8.90274 9.25466 9.49453 8.96794C9.69297 8.87166 9.77617 8.6324 9.68008 8.43357C9.5836 8.23474 9.34414 8.15271 9.14532 8.24802C8.66367 8.48162 8.14375 8.59998 7.6 8.59998C6.81875 8.59998 6.07578 8.35369 5.45078 7.88689C4.54219 7.21228 4 6.13298 4 4.99998C4 3.01502 5.61484 1.39998 7.6 1.39998C8.89688 1.39998 10.0984 2.10349 10.7352 3.23611C10.8434 3.42869 11.0871 3.49724 11.2801 3.38865C11.4727 3.28025 11.541 3.0365 11.4328 2.84392C10.6539 1.45974 9.18555 0.599976 7.6 0.599976C5.17383 0.599976 3.2 2.5738 3.2 4.99998C3.2 6.15723 3.66775 7.2644 4.46736 8.07944C3.64099 8.45442 2.87454 8.97939 2.22461 9.62556C0.789844 11.0644 0 12.973 0 15V17.4C0 17.6209 0.178908 17.8 0.4 17.8ZM11.2 7.39998C11.2 5.19431 12.9945 3.39998 15.2 3.39998C17.4055 3.39998 19.2 5.19431 19.2 7.39998C19.2 9.60564 17.4055 11.4 15.2 11.4C12.9945 11.4 11.2 9.60564 11.2 7.39998ZM9.54297 13.3427C10.4031 12.4825 11.46 11.8268 12.6068 11.433C13.3556 11.9162 14.2445 12.2 15.2 12.2C16.1548 12.2 17.0432 11.9165 17.7916 11.434C21.0326 12.5402 23.2 15.5552 23.2 19V20.6H7.2V19C7.2 16.8627 8.03203 14.8535 9.54297 13.3427Z" fill="black"/>
</svg>
