<svg width="18" height="18" viewBox="0 0 18 18" fill="none" xmlns="http://www.w3.org/2000/svg">
<path d="M17.3334 5.51666C17.3374 5.46395 17.3374 5.41102 17.3334 5.35832V5.35832L15.6667 1.19166C15.6016 1.02695 15.4857 0.88727 15.3359 0.79287C15.186 0.698469 15.01 0.65426 14.8334 0.666656H3.16669C2.99979 0.666495 2.83669 0.716452 2.69851 0.810057C2.56033 0.903662 2.45344 1.0366 2.39169 1.19166L0.72502 5.35832C0.721003 5.41102 0.721003 5.46395 0.72502 5.51666C0.697329 5.56304 0.677612 5.61375 0.666687 5.66666V5.66666C0.675962 6.24269 0.834375 6.80649 1.12647 7.30306C1.41857 7.79962 1.83439 8.21201 2.33335 8.49999V16.5C2.33335 16.721 2.42115 16.933 2.57743 17.0892C2.73371 17.2455 2.94567 17.3333 3.16669 17.3333H14.8334C15.0544 17.3333 15.2663 17.2455 15.4226 17.0892C15.5789 16.933 15.6667 16.721 15.6667 16.5V8.53332C16.1705 8.24247 16.5894 7.82484 16.8818 7.32194C17.1742 6.81903 17.3298 6.24837 17.3334 5.66666V5.66666C17.3412 5.61696 17.3412 5.56635 17.3334 5.51666V5.51666ZM9.83335 15.6667H8.16669V12.3333H9.83335V15.6667ZM14 15.6667H11.5V11.5C11.5 11.279 11.4122 11.067 11.2559 10.9107C11.0997 10.7545 10.8877 10.6667 10.6667 10.6667H7.33335C7.11234 10.6667 6.90038 10.7545 6.7441 10.9107C6.58782 11.067 6.50002 11.279 6.50002 11.5V15.6667H4.00002V8.99999C4.47458 8.99731 4.94309 8.89333 5.37423 8.69501C5.80537 8.49669 6.18919 8.20859 6.50002 7.84999C6.81283 8.20468 7.19753 8.48875 7.62856 8.68332C8.0596 8.8779 8.5271 8.97853 9.00002 8.97853C9.47294 8.97853 9.94044 8.8779 10.3715 8.68332C10.8025 8.48875 11.1872 8.20468 11.5 7.84999C11.8109 8.20859 12.1947 8.49669 12.6258 8.69501C13.0569 8.89333 13.5255 8.99731 14 8.99999V15.6667ZM14 7.33332C13.558 7.33332 13.1341 7.15773 12.8215 6.84517C12.5089 6.53261 12.3334 6.10868 12.3334 5.66666C12.3334 5.44564 12.2456 5.23368 12.0893 5.0774C11.933 4.92112 11.721 4.83332 11.5 4.83332C11.279 4.83332 11.067 4.92112 10.9108 5.0774C10.7545 5.23368 10.6667 5.44564 10.6667 5.66666C10.6667 6.10868 10.4911 6.53261 10.1785 6.84517C9.86597 7.15773 9.44205 7.33332 9.00002 7.33332C8.55799 7.33332 8.13407 7.15773 7.82151 6.84517C7.50895 6.53261 7.33335 6.10868 7.33335 5.66666C7.33335 5.44564 7.24556 5.23368 7.08928 5.0774C6.933 4.92112 6.72103 4.83332 6.50002 4.83332C6.27901 4.83332 6.06705 4.92112 5.91077 5.0774C5.75448 5.23368 5.66669 5.44564 5.66669 5.66666C5.67489 5.88553 5.63991 6.10387 5.56374 6.30922C5.48756 6.51457 5.37169 6.7029 5.22273 6.86347C5.07377 7.02404 4.89464 7.1537 4.69557 7.24504C4.4965 7.33638 4.28139 7.38762 4.06252 7.39582C3.62049 7.4124 3.18998 7.2527 2.8657 6.95186C2.70514 6.8029 2.57548 6.62377 2.48414 6.4247C2.3928 6.22564 2.34156 6.01053 2.33335 5.79166L3.73335 2.33332H14.2667L15.6667 5.79166C15.6351 6.21167 15.4457 6.60415 15.1365 6.89016C14.8272 7.17617 14.4212 7.33451 14 7.33332V7.33332Z" fill="#5D6C76"/>
</svg>
