<svg width="20" height="24" viewBox="0 0 20 24" fill="none" xmlns="http://www.w3.org/2000/svg">
<path d="M18.7273 5.45455H14.9091C14.6086 5.45455 14.3637 5.20964 14.3637 4.90909V2.72727C14.3637 2.42618 14.1193 2.18182 13.8182 2.18182C13.5171 2.18182 13.2728 2.42618 13.2728 2.72727V4.90909C13.2728 5.81127 14.007 6.54545 14.9091 6.54545H18.1819V22.3636C18.1819 22.6642 17.937 22.9091 17.6364 22.9091H2.36369C2.06314 22.9091 1.81823 22.6642 1.81823 22.3636V1.63636C1.81823 1.33582 2.06314 1.09091 2.36369 1.09091H14.1586L18.3679 4.77382C18.5953 4.97291 18.9395 4.94945 19.1375 4.72255C19.3361 4.49564 19.3131 4.15145 19.0862 3.95291L14.7226 0.134727C14.6233 0.048 14.4957 0 14.3637 0H2.36369C1.46151 0 0.727325 0.734182 0.727325 1.63636V22.3636C0.727325 23.2658 1.46151 24 2.36369 24H17.6364C18.5386 24 19.2728 23.2658 19.2728 22.3636V6C19.2728 5.69891 19.0284 5.45455 18.7273 5.45455Z" fill="black"/>
<path d="M15.4545 17.4545C15.4545 17.1534 15.2102 16.9091 14.9091 16.9091H4.54545C4.24436 16.9091 4 17.1534 4 17.4545C4 17.7556 4.24436 18 4.54545 18H14.9091C15.2102 18 15.4545 17.7556 15.4545 17.4545Z" fill="black"/>
<path d="M4.54545 9.27261H10C10.3011 9.27261 10.5455 9.02825 10.5455 8.72716C10.5455 8.42607 10.3011 8.1817 10 8.1817H4.54545C4.24436 8.1817 4 8.42607 4 8.72716C4 9.02825 4.24436 9.27261 4.54545 9.27261Z" fill="black"/>
<path d="M15.4547 10.3636H8.90925C8.60816 10.3636 8.3638 10.608 8.3638 10.9091C8.3638 11.2102 8.60816 11.4546 8.90925 11.4546H15.4547C15.7558 11.4546 16.0002 11.2102 16.0002 10.9091C16.0002 10.608 15.7558 10.3636 15.4547 10.3636Z" fill="black"/>
<path d="M15.4547 8.1817H12.1819C11.8808 8.1817 11.6365 8.42607 11.6365 8.72716C11.6365 9.02825 11.8808 9.27261 12.1819 9.27261H15.4547C15.7557 9.27261 16.0001 9.02825 16.0001 8.72716C16.0001 8.42607 15.7557 8.1817 15.4547 8.1817Z" fill="black"/>
<path d="M4.54545 13.6365H9.45455C9.75564 13.6365 10 13.3921 10 13.091C10 12.79 9.75564 12.5456 9.45455 12.5456H4.54545C4.24436 12.5456 4 12.79 4 13.091C4 13.3921 4.24436 13.6365 4.54545 13.6365Z" fill="black"/>
<path d="M4.54545 15.8182H6.72727C7.02836 15.8182 7.27273 15.5738 7.27273 15.2727C7.27273 14.9717 7.02836 14.7273 6.72727 14.7273H4.54545C4.24436 14.7273 4 14.9717 4 15.2727C4 15.5738 4.24436 15.8182 4.54545 15.8182Z" fill="black"/>
<path d="M4.54545 11.4546H6.72727C7.02836 11.4546 7.27273 11.2102 7.27273 10.9091C7.27273 10.608 7.02836 10.3636 6.72727 10.3636H4.54545C4.24436 10.3636 4 10.608 4 10.9091C4 11.2102 4.24436 11.4546 4.54545 11.4546Z" fill="black"/>
<path d="M15.9999 13.091C15.9999 12.79 15.7556 12.5456 15.4545 12.5456H11.6363C11.3352 12.5456 11.0909 12.79 11.0909 13.091C11.0909 13.3921 11.3352 13.6365 11.6363 13.6365H15.4545C15.7556 13.6365 15.9999 13.3921 15.9999 13.091Z" fill="black"/>
<path d="M8.3638 15.2727C8.3638 15.5738 8.60816 15.8182 8.90925 15.8182H13.2729C13.574 15.8182 13.8183 15.5738 13.8183 15.2727C13.8183 14.9717 13.574 14.7273 13.2729 14.7273H8.90925C8.60816 14.7273 8.3638 14.9717 8.3638 15.2727Z" fill="black"/>
<path d="M4.54545 19.0909C4.24436 19.0909 4 19.3353 4 19.6364C4 19.9375 4.24436 20.1819 4.54545 20.1819H10C10.3011 20.1819 10.5455 19.9375 10.5455 19.6364C10.5455 19.3353 10.3011 19.0909 10 19.0909H4.54545Z" fill="black"/>
</svg>
