<svg width="18" height="18" viewBox="0 0 18 18" fill="none" xmlns="http://www.w3.org/2000/svg">
<path d="M15.95 6.76667L4.28336 0.933338C3.82293 0.704179 3.30304 0.622597 2.79455 0.699715C2.28607 0.776833 1.81374 1.0089 1.44197 1.36427C1.07019 1.71964 0.817067 2.18102 0.7171 2.68551C0.617134 3.19 0.675191 3.71305 0.883356 4.18334L2.88336 8.65834C2.92874 8.76653 2.95211 8.88268 2.95211 9.00001C2.95211 9.11733 2.92874 9.23348 2.88336 9.34167L0.883356 13.8167C0.71394 14.1973 0.642319 14.6142 0.675004 15.0295C0.707688 15.4448 0.843642 15.8454 1.07051 16.1948C1.29737 16.5442 1.60796 16.8313 1.97404 17.0302C2.34012 17.229 2.75009 17.3332 3.16669 17.3333C3.55688 17.3294 3.94126 17.2383 4.29169 17.0667L15.9584 11.2333C16.3722 11.0252 16.72 10.7061 16.9631 10.3117C17.2062 9.91738 17.3349 9.46325 17.3349 9.00001C17.3349 8.53676 17.2062 8.08263 16.9631 7.68827C16.72 7.29392 16.3722 6.97485 15.9584 6.76667H15.95ZM15.2084 9.74167L3.54169 15.575C3.38849 15.6486 3.21647 15.6735 3.04868 15.6465C2.88089 15.6196 2.72536 15.5419 2.60295 15.424C2.48054 15.3062 2.39709 15.1537 2.3638 14.987C2.33051 14.8204 2.34896 14.6475 2.41669 14.4917L4.40836 10.0167C4.43414 9.95691 4.4564 9.8957 4.47502 9.83334H10.2167C10.4377 9.83334 10.6497 9.74554 10.8059 9.58926C10.9622 9.43298 11.05 9.22102 11.05 9.00001C11.05 8.77899 10.9622 8.56703 10.8059 8.41075C10.6497 8.25447 10.4377 8.16667 10.2167 8.16667H4.47502C4.4564 8.10431 4.43414 8.0431 4.40836 7.98334L2.41669 3.50834C2.34896 3.35247 2.33051 3.17963 2.3638 3.01298C2.39709 2.84633 2.48054 2.69384 2.60295 2.57596C2.72536 2.45808 2.88089 2.38045 3.04868 2.35347C3.21647 2.32648 3.38849 2.35145 3.54169 2.42501L15.2084 8.25834C15.3449 8.32827 15.4594 8.43452 15.5394 8.56538C15.6194 8.69624 15.6617 8.84663 15.6617 9.00001C15.6617 9.15338 15.6194 9.30377 15.5394 9.43463C15.4594 9.56549 15.3449 9.67174 15.2084 9.74167Z" fill="#5D6C76"/>
</svg>
