<svg width="18" height="18" viewBox="0 0 18 18" fill="none" xmlns="http://www.w3.org/2000/svg">
<path d="M16.5 4.00002C16.279 4.00002 16.067 4.08782 15.9108 4.2441C15.7545 4.40038 15.6667 4.61234 15.6667 4.83335V13.1667C15.6667 13.8297 15.4033 14.4656 14.9345 14.9345C14.4656 15.4033 13.8297 15.6667 13.1667 15.6667H4.83335C4.61234 15.6667 4.40038 15.7545 4.2441 15.9108C4.08782 16.067 4.00002 16.279 4.00002 16.5C4.00002 16.721 4.08782 16.933 4.2441 17.0893C4.40038 17.2456 4.61234 17.3334 4.83335 17.3334H13.1667C14.2718 17.3334 15.3316 16.8944 16.113 16.113C16.8944 15.3316 17.3334 14.2718 17.3334 13.1667V4.83335C17.3334 4.61234 17.2456 4.40038 17.0893 4.2441C16.933 4.08782 16.721 4.00002 16.5 4.00002ZM14 11.5V3.16669C14 2.50365 13.7366 1.86776 13.2678 1.39892C12.7989 0.930079 12.1631 0.666687 11.5 0.666687H3.16669C2.50365 0.666687 1.86776 0.930079 1.39892 1.39892C0.930079 1.86776 0.666687 2.50365 0.666687 3.16669V11.5C0.666687 12.1631 0.930079 12.7989 1.39892 13.2678C1.86776 13.7366 2.50365 14 3.16669 14H11.5C12.1631 14 12.7989 13.7366 13.2678 13.2678C13.7366 12.7989 14 12.1631 14 11.5ZM7.33335 2.33335H9.00002V6.38335L8.70002 6.13335C8.55028 6.00863 8.36157 5.94033 8.16669 5.94033C7.97181 5.94033 7.78309 6.00863 7.63335 6.13335L7.33335 6.38335V2.33335ZM2.33335 11.5V3.16669C2.33335 2.94567 2.42115 2.73371 2.57743 2.57743C2.73371 2.42115 2.94567 2.33335 3.16669 2.33335H5.66669V8.16669C5.66668 8.32599 5.71233 8.48196 5.79823 8.61612C5.88414 8.75027 6.00669 8.857 6.15139 8.92364C6.29608 8.99029 6.45684 9.01407 6.61463 8.99216C6.77242 8.97025 6.92063 8.90357 7.04169 8.80002L8.16669 7.85835L9.29169 8.80002C9.44264 8.92911 9.63473 9.00004 9.83335 9.00002C9.95392 8.99917 10.073 8.97364 10.1834 8.92502C10.328 8.85808 10.4504 8.75105 10.5361 8.61665C10.6218 8.48224 10.6671 8.32608 10.6667 8.16669V2.33335H11.5C11.721 2.33335 11.933 2.42115 12.0893 2.57743C12.2456 2.73371 12.3334 2.94567 12.3334 3.16669V11.5C12.3334 11.721 12.2456 11.933 12.0893 12.0893C11.933 12.2456 11.721 12.3334 11.5 12.3334H3.16669C2.94567 12.3334 2.73371 12.2456 2.57743 12.0893C2.42115 11.933 2.33335 11.721 2.33335 11.5Z" fill="#5D6C76"/>
</svg>
