<svg width="20" height="16" viewBox="0 0 20 16" fill="none" xmlns="http://www.w3.org/2000/svg">
<path d="M10.25 8.18335C10.6946 7.79847 11.0513 7.32242 11.2957 6.78754C11.5401 6.25266 11.6667 5.67145 11.6666 5.08335C11.6666 3.97829 11.2277 2.91848 10.4463 2.13708C9.66486 1.35567 8.60505 0.916687 7.49998 0.916687C6.39491 0.916687 5.3351 1.35567 4.5537 2.13708C3.7723 2.91848 3.33331 3.97829 3.33331 5.08335C3.33331 5.67145 3.45981 6.25266 3.70425 6.78754C3.94869 7.32242 4.30533 7.79847 4.74998 8.18335C3.58343 8.71159 2.5937 9.56463 1.89913 10.6405C1.20456 11.7163 0.83454 12.9694 0.833313 14.25C0.833313 14.471 0.92111 14.683 1.07739 14.8393C1.23367 14.9956 1.44563 15.0834 1.66665 15.0834C1.88766 15.0834 2.09962 14.9956 2.2559 14.8393C2.41218 14.683 2.49998 14.471 2.49998 14.25C2.49998 12.9239 3.02676 11.6522 3.96445 10.7145C4.90213 9.77681 6.1739 9.25002 7.49998 9.25002C8.82606 9.25002 10.0978 9.77681 11.0355 10.7145C11.9732 11.6522 12.5 12.9239 12.5 14.25C12.5 14.471 12.5878 14.683 12.7441 14.8393C12.9003 14.9956 13.1123 15.0834 13.3333 15.0834C13.5543 15.0834 13.7663 14.9956 13.9226 14.8393C14.0788 14.683 14.1666 14.471 14.1666 14.25C14.1654 12.9694 13.7954 11.7163 13.1008 10.6405C12.4063 9.56463 11.4165 8.71159 10.25 8.18335ZM7.49998 7.58335C7.00553 7.58335 6.52218 7.43673 6.11105 7.16203C5.69993 6.88732 5.3795 6.49688 5.19028 6.04006C5.00106 5.58325 4.95155 5.08058 5.04802 4.59563C5.14448 4.11068 5.38258 3.66522 5.73221 3.31559C6.08184 2.96596 6.5273 2.72785 7.01225 2.63139C7.49721 2.53493 7.99987 2.58444 8.45669 2.77366C8.9135 2.96287 9.30395 3.28331 9.57865 3.69443C9.85336 4.10555 9.99998 4.5889 9.99998 5.08335C9.99998 5.7464 9.73659 6.38228 9.26775 6.85112C8.79891 7.31996 8.16302 7.58335 7.49998 7.58335ZM15.6166 7.85002C16.15 7.24946 16.4983 6.50757 16.6198 5.71364C16.7413 4.91971 16.6308 4.10758 16.3015 3.37502C15.9721 2.64246 15.4381 2.02068 14.7637 1.58454C14.0893 1.1484 13.3032 0.916472 12.5 0.916687C12.279 0.916687 12.067 1.00448 11.9107 1.16076C11.7544 1.31705 11.6666 1.52901 11.6666 1.75002C11.6666 1.97103 11.7544 2.183 11.9107 2.33928C12.067 2.49556 12.279 2.58335 12.5 2.58335C13.163 2.58335 13.7989 2.84675 14.2677 3.31559C14.7366 3.78443 15 4.42031 15 5.08335C14.9988 5.52105 14.8827 5.95077 14.6634 6.32954C14.444 6.7083 14.129 7.02284 13.75 7.24169C13.6264 7.31295 13.5232 7.41474 13.4503 7.5373C13.3773 7.65987 13.3371 7.7991 13.3333 7.94169C13.3298 8.08316 13.3624 8.22318 13.428 8.34857C13.4936 8.47395 13.5901 8.58057 13.7083 8.65835L14.0333 8.87502L14.1416 8.93335C15.1461 9.40979 15.9936 10.1633 16.5841 11.1053C17.1747 12.0472 17.4838 13.1383 17.475 14.25C17.475 14.471 17.5628 14.683 17.7191 14.8393C17.8753 14.9956 18.0873 15.0834 18.3083 15.0834C18.5293 15.0834 18.7413 14.9956 18.8976 14.8393C19.0538 14.683 19.1416 14.471 19.1416 14.25C19.1485 12.9712 18.8282 11.7119 18.2112 10.5917C17.5942 9.47158 16.7011 8.52778 15.6166 7.85002Z" fill="#5D6C76"/>
</svg>
