<svg width="20" height="16" viewBox="0 0 20 16" fill="none" xmlns="http://www.w3.org/2000/svg">
<path d="M18.9833 6.64169C18.9049 6.545 18.8058 6.46712 18.6933 6.41376C18.5808 6.36041 18.4578 6.33293 18.3333 6.33335H16.6666V5.50002C16.6666 4.83698 16.4033 4.20109 15.9344 3.73225C15.4656 3.26341 14.8297 3.00002 14.1666 3.00002H8.93331L8.66665 2.16669C8.49377 1.67771 8.1731 1.2546 7.74906 0.955986C7.32502 0.657367 6.81861 0.498019 6.29998 0.500019H3.33331C2.67027 0.500019 2.03439 0.763411 1.56555 1.23225C1.09671 1.70109 0.833313 2.33698 0.833313 3.00002V13C0.833313 13.6631 1.09671 14.2989 1.56555 14.7678C2.03439 15.2366 2.67027 15.5 3.33331 15.5H15.3333C15.901 15.4984 16.4512 15.3036 16.8935 14.9476C17.3357 14.5917 17.6437 14.0959 17.7666 13.5417L19.1666 7.35002C19.192 7.22578 19.1886 7.0974 19.1569 6.97466C19.1251 6.85191 19.0657 6.73803 18.9833 6.64169ZM4.47498 13.1834C4.43264 13.3713 4.32647 13.5388 4.17453 13.6574C4.02259 13.7759 3.83428 13.8381 3.64165 13.8334H3.33331C3.1123 13.8334 2.90034 13.7456 2.74406 13.5893C2.58778 13.433 2.49998 13.221 2.49998 13V3.00002C2.49998 2.779 2.58778 2.56704 2.74406 2.41076C2.90034 2.25448 3.1123 2.16669 3.33331 2.16669H6.29998C6.4817 2.1572 6.66153 2.20746 6.81201 2.30978C6.96248 2.4121 7.07533 2.56087 7.13331 2.73335L7.58331 4.10002C7.63679 4.25897 7.73698 4.39809 7.87079 4.49919C8.0046 4.60029 8.1658 4.65867 8.33331 4.66669H14.1666C14.3877 4.66669 14.5996 4.75448 14.7559 4.91076C14.9122 5.06704 15 5.27901 15 5.50002V6.33335H6.66665C6.47401 6.32864 6.2857 6.39084 6.13376 6.50935C5.98182 6.62786 5.87565 6.79537 5.83331 6.98335L4.47498 13.1834ZM16.1416 13.1834C16.0993 13.3713 15.9931 13.5388 15.8412 13.6574C15.6893 13.7759 15.5009 13.8381 15.3083 13.8334H6.00831C6.05135 13.7405 6.08216 13.6425 6.09998 13.5417L7.33331 8.00002H17.3333L16.1416 13.1834Z" fill="#5D6C76"/>
</svg>
